<svg xmlns="http://www.w3.org/2000/svg" fill="none" viewBox="0 0 1822.95 512">
<path d="M512 0H0V512H512V0Z" fill="#BEDC9B"/>
<path d="M203.728 392.144L104.512 305.392L125.584 281.296L200.144 346.496L383.776 126.128L408.368 146.64L203.728 392.144Z" fill="#2DC065"/>
<path d="M650.3 311.6C650.3 303.2 647.8 296.4 642.8 291.2C637.8 285.8 631.5 281.1 623.9 277.1C616.5 272.9 608.4 269 599.6 265.4C590.8 261.8 582.6 257.5 575 252.5C567.6 247.3 561.4 241 556.4 233.6C551.4 226 548.9 216.4 548.9 204.8C548.9 188.4 554.6 175.4 566 165.8C577.4 156.2 593.6 151.4 614.6 151.4C626.8 151.4 637.9 152.3 647.9 154.1C657.9 155.9 665.7 158.2 671.3 161L663.8 182.9C659.2 180.7 652.4 178.6 643.4 176.6C634.6 174.6 624.6 173.6 613.4 173.6C600.2 173.6 590.3 176.6 583.7 182.6C577.1 188.4 573.8 195.3 573.8 203.3C573.8 211.1 576.3 217.6 581.3 222.8C586.3 228 592.5 232.7 599.9 236.9C607.5 240.9 615.7 244.9 624.5 248.9C633.3 252.9 641.4 257.6 648.8 263C656.4 268.2 662.7 274.5 667.7 281.9C672.7 289.3 675.2 298.5 675.2 309.5C675.2 318.5 673.6 326.6 670.4 333.8C667.2 341 662.5 347.2 656.3 352.4C650.1 357.6 642.6 361.6 633.8 364.4C625 367.2 615 368.6 603.8 368.6C588.8 368.6 576.4 367.4 566.6 365C556.8 362.8 549.2 360.3 543.8 357.5L552.2 335C556.8 337.6 563.6 340.2 572.6 342.8C581.6 345.2 591.7 346.4 602.9 346.4C609.5 346.4 615.7 345.8 621.5 344.6C627.3 343.2 632.3 341.1 636.5 338.3C640.7 335.3 644 331.6 646.4 327.2C649 322.8 650.3 317.6 650.3 311.6ZM739.175 328.1C739.175 335.1 740.375 340.1 742.775 343.1C745.175 346.1 748.575 347.6 752.975 347.6C755.575 347.6 758.375 347.4 761.375 347C764.375 346.6 767.775 345.7 771.575 344.3L774.275 363.2C771.075 364.8 766.575 366.1 760.775 367.1C755.175 368.1 750.275 368.6 746.075 368.6C737.075 368.6 729.675 366.1 723.875 361.1C718.075 355.9 715.175 347.2 715.175 335V155H739.175V328.1ZM805.173 215H829.173V365H805.173V215ZM800.073 169.4C800.073 164.8 801.573 160.9 804.573 157.7C807.773 154.3 811.773 152.6 816.573 152.6C821.373 152.6 825.473 154.3 828.873 157.7C832.273 160.9 833.973 164.8 833.973 169.4C833.973 174 832.273 177.8 828.873 180.8C825.473 183.8 821.373 185.3 816.573 185.3C811.773 185.3 807.773 183.8 804.573 180.8C801.573 177.8 800.073 174 800.073 169.4ZM968.246 365V280.1C968.246 272.1 967.846 265.2 967.046 259.4C966.446 253.4 965.146 248.4 963.146 244.4C961.146 240.4 958.246 237.4 954.446 235.4C950.846 233.4 946.046 232.4 940.046 232.4C930.846 232.4 923.146 235.2 916.946 240.8C910.946 246.4 906.746 253.4 904.346 261.8V365H880.346V215H897.146L901.646 233.3H902.846C908.246 226.9 914.446 221.7 921.446 217.7C928.646 213.5 937.946 211.4 949.346 211.4C958.946 211.4 966.746 213.3 972.746 217.1C978.946 220.7 983.746 227.1 987.146 236.3C991.746 228.5 998.046 222.4 1006.05 218C1014.25 213.6 1023.45 211.4 1033.65 211.4C1042.05 211.4 1049.15 212.4 1054.95 214.4C1060.75 216.2 1065.55 219.5 1069.35 224.3C1073.15 229.1 1075.85 235.6 1077.45 243.8C1079.25 252 1080.15 262.4 1080.15 275V365H1056.15V274.7C1056.15 267.5 1055.75 261.3 1054.95 256.1C1054.35 250.7 1052.95 246.3 1050.75 242.9C1048.75 239.3 1045.85 236.7 1042.05 235.1C1038.45 233.3 1033.65 232.4 1027.65 232.4C1017.65 232.4 1009.85 235.2 1004.25 240.8C998.646 246.4 994.646 254.4 992.246 264.8V365H968.246ZM1167.9 312.2L1176.3 341H1177.8L1184.4 311.9L1213.5 215H1237.8L1193.4 349.7C1190 359.5 1186.6 369 1183.2 378.2C1180 387.4 1176.4 395.6 1172.4 402.8C1168.4 410 1163.9 415.7 1158.9 419.9C1153.9 424.3 1148.1 426.5 1141.5 426.5C1134.3 426.5 1128.4 425.5 1123.8 423.5L1128 402.8C1130.6 403.8 1133.1 404.3 1135.5 404.3C1141.1 404.3 1146.5 401.3 1151.7 395.3C1156.9 389.5 1161.2 379.4 1164.6 365L1104.3 215H1131.9L1167.9 312.2ZM1461.31 177.2H1395.91V365H1371.01V177.2H1305.61V155H1461.31V177.2ZM1494.82 215H1518.82V365H1494.82V215ZM1489.72 169.4C1489.72 164.8 1491.22 160.9 1494.22 157.7C1497.42 154.3 1501.42 152.6 1506.22 152.6C1511.02 152.6 1515.12 154.3 1518.52 157.7C1521.92 160.9 1523.62 164.8 1523.62 169.4C1523.62 174 1521.92 177.8 1518.52 180.8C1515.12 183.8 1511.02 185.3 1506.22 185.3C1501.42 185.3 1497.42 183.8 1494.22 180.8C1491.22 177.8 1489.72 174 1489.72 169.4ZM1672.29 355.1C1666.29 359.5 1659.19 362.8 1650.99 365C1642.79 367.4 1634.19 368.6 1625.19 368.6C1613.59 368.6 1603.79 366.8 1595.79 363.2C1587.79 359.4 1581.19 354.1 1575.99 347.3C1570.99 340.3 1567.29 332 1564.89 322.4C1562.69 312.6 1561.59 301.8 1561.59 290C1561.59 264.6 1567.19 245.2 1578.39 231.8C1589.59 218.2 1605.69 211.4 1626.69 211.4C1636.29 211.4 1644.39 212.2 1650.99 213.8C1657.79 215.2 1663.89 217.3 1669.29 220.1L1662.39 240.8C1657.79 238.2 1652.69 236.2 1647.09 234.8C1641.49 233.2 1635.49 232.4 1629.09 232.4C1600.69 232.4 1586.49 251.6 1586.49 290C1586.49 297.6 1587.19 304.9 1588.59 311.9C1590.19 318.7 1592.69 324.8 1596.09 330.2C1599.69 335.4 1604.29 339.6 1609.89 342.8C1615.69 346 1622.79 347.6 1631.19 347.6C1638.39 347.6 1644.79 346.5 1650.39 344.3C1656.19 342.1 1660.89 339.6 1664.49 336.8L1672.29 355.1ZM1743.15 297.5H1729.35V365H1705.35V155H1729.35V282.8L1741.65 278.6L1788.15 215H1816.05L1770.15 275.3L1757.85 285.2L1772.85 297.2L1822.95 365H1793.25L1743.15 297.5Z" fill="#2DC065"/>
</svg>